<svg width="8" height="11" viewBox="0 0 8 11" fill="none" xmlns="http://www.w3.org/2000/svg">
<path d="M6.88309 5.07078L1.52378 0.17573C1.39982 0.0624221 1.23435 -1.07911e-07 1.05792 -9.24864e-08C0.881486 -7.7062e-08 0.716018 0.0624222 0.592064 0.17573L0.197387 0.536134C-0.0594314 0.770977 -0.0594313 1.15267 0.197387 1.38715L4.69774 5.49772L0.192395 9.61285C0.0684402 9.72616 9.41827e-07 9.8772 9.57185e-07 10.0383C9.7256e-07 10.1995 0.0684403 10.3506 0.192395 10.464L0.587071 10.8243C0.711123 10.9376 0.876494 11 1.05293 11C1.22936 11 1.39483 10.9376 1.51879 10.8243L6.88309 5.92475C7.00734 5.81108 7.07559 5.65932 7.07519 5.49799C7.07559 5.33603 7.00734 5.18436 6.88309 5.07078Z" fill="#70788A" fill-opacity="0.5"/>
</svg>
