<svg width="17" height="16" viewBox="0 0 17 16" fill="none" xmlns="http://www.w3.org/2000/svg">
<ellipse opacity="0.1" cx="8.01364" cy="8" rx="8.01364" ry="8" fill="#1F4AD8"/>
<path d="M9.29418 5.57288V4.57129H8.33636V5.55088H7.37854V4.57129H6.42071V5.55088H5.46289V6.53047H6.42071V9.46925H5.46289V10.4488H6.42071V11.4284H7.37854V10.4488H8.33636V11.4284H9.29418V10.4268C9.97256 10.3098 10.4915 9.70625 10.4915 8.97945C10.4915 8.60278 10.3512 8.26018 10.1227 7.99986C10.3512 7.73954 10.4915 7.39694 10.4915 7.02027C10.4915 6.29371 9.97256 5.69019 9.29418 5.57288ZM7.37854 6.53047H9.05473C9.31885 6.53047 9.53364 6.75014 9.53364 7.02027C9.53364 7.2904 9.31885 7.51006 9.05473 7.51006H7.37854V6.53047ZM9.05473 9.46925H7.37854V8.48966H9.05473C9.31885 8.48966 9.53364 8.70932 9.53364 8.97945C9.53364 9.24958 9.31885 9.46925 9.05473 9.46925Z" fill="#1F4AD8"/>
</svg>
