<svg width="18" height="18" viewBox="0 0 18 18" fill="none" xmlns="http://www.w3.org/2000/svg">
<g clip-path="url(#clip0_4566:40780)">
<path d="M17.8416 14.9786L9.9445 1.8819C9.74491 1.55091 9.38657 1.34851 9.00002 1.34851C8.61348 1.34851 8.25513 1.55087 8.05555 1.8819L0.158473 14.9786C-0.0469095 15.3193 -0.0529915 15.7441 0.142618 16.0904C0.338227 16.4368 0.705153 16.651 1.10291 16.651H16.8972C17.2949 16.651 17.6619 16.4368 17.8575 16.0904C18.0531 15.7441 18.047 15.3193 17.8416 14.9786ZM9.00593 5.87881C9.45948 5.87881 9.84325 6.13468 9.84325 6.5882C9.84325 7.97205 9.68044 9.9607 9.68044 11.3446C9.68044 11.7051 9.28504 11.8562 9.00593 11.8562C8.63384 11.8562 8.31982 11.705 8.31982 11.3446C8.31982 9.9607 8.15705 7.97205 8.15705 6.5882C8.15705 6.13468 8.52914 5.87881 9.00593 5.87881ZM9.01757 14.4496C8.5059 14.4496 8.1221 14.031 8.1221 13.5542C8.1221 13.0657 8.50587 12.6587 9.01757 12.6587C9.49436 12.6587 9.90139 13.0657 9.90139 13.5542C9.90139 14.031 9.49436 14.4496 9.01757 14.4496Z" fill="#E02D2D"/>
</g>
<defs>
<clipPath id="clip0_4566:40780">
<rect width="18" height="18" fill="white"/>
</clipPath>
</defs>
</svg>
