<svg width="28" height="26" viewBox="0 0 28 26" fill="none" xmlns="http://www.w3.org/2000/svg">
<path d="M24.9922 0.688477H3.00781C1.3493 0.688477 0 2.03778 0 3.69629V18.1338C0 19.7923 1.3493 21.1416 3.00781 21.1416H10.0906C10.1771 21.1416 10.2593 21.1831 10.3106 21.2527L12.8948 24.7562C13.1537 25.1073 13.5524 25.3098 13.9887 25.3118H13.9953C14.4291 25.3118 14.827 25.1132 15.0879 24.7662L17.7307 21.2507C17.782 21.1823 17.8638 21.1415 17.9493 21.1415H24.9922C26.6507 21.1415 28 19.7922 28 18.1337V3.69623C28 2.03773 26.6507 0.688477 24.9922 0.688477ZM26.3594 18.1338C26.3594 18.263 26.341 18.3878 26.3074 18.5063L17.8797 11.1187L26.3594 4.08162V18.1338ZM24.9922 2.3291C25.2423 2.3291 25.4767 2.39691 25.6786 2.51466L14.8754 11.4799C14.3695 11.8998 13.6352 11.8998 13.1292 11.4799L2.32416 2.51307C2.52541 2.39631 2.75887 2.3291 3.00781 2.3291H24.9922ZM1.69263 18.5063C1.659 18.3878 1.64062 18.2629 1.64062 18.1338V4.07779L10.1225 11.1167L1.69263 18.5063ZM16.4193 20.2648L13.9972 23.4869L11.6309 20.2789C11.2717 19.7917 10.6958 19.5009 10.0906 19.5009H3.0468L11.401 12.1777L12.0815 12.7424C12.638 13.2043 13.32 13.4351 14.0023 13.4351C14.6844 13.4351 15.3666 13.2041 15.9231 12.7424L16.6012 12.1796L24.9531 19.5009H17.9493C17.3509 19.501 16.7789 19.7865 16.4193 20.2648Z" fill="#1F4AD8"/>
</svg>
