<svg width="17" height="17" viewBox="0 0 17 17" fill="none" xmlns="http://www.w3.org/2000/svg">
<path d="M15.0893 10.4775L13.832 9.22023L8.17431 3.5628C7.13161 2.52791 5.44847 2.53103 4.40968 3.56983C3.37088 4.60863 3.36775 6.29176 4.40265 7.33447L10.0601 12.9936C10.2915 13.2251 10.6668 13.2251 10.8983 12.9936C11.1297 12.7621 11.1297 12.3869 10.8983 12.1553L5.2409 6.49622C4.66228 5.9176 4.66228 4.97967 5.2409 4.40105C5.81951 3.82244 6.75745 3.82244 7.33606 4.40105L12.9952 10.0585L14.2525 11.3157C15.2942 12.3577 15.2938 14.0468 14.2518 15.0884C13.2098 16.1299 11.5208 16.1296 10.4791 15.0876L9.43162 14.0397L3.56453 8.17259L3.14534 7.75353C1.68019 6.24257 1.6988 3.83545 3.18699 2.34714C4.6753 0.858961 7.08241 0.840351 8.59337 2.3055L14.8795 8.59177C15.0293 8.74144 15.2476 8.79987 15.452 8.74508C15.6566 8.69029 15.8164 8.53061 15.8712 8.32602C15.926 8.12144 15.8674 7.90332 15.7178 7.75353L9.43162 1.46738C7.46295 -0.49231 4.27953 -0.488666 2.31542 1.47558C0.351178 3.43969 0.347534 6.62311 2.30722 8.59177L8.59337 14.8779L9.64245 15.9258C11.1554 17.379 13.553 17.3548 15.0361 15.8712C16.5193 14.3877 16.5429 11.9901 15.0893 10.4775Z" fill="#0B1324"/>
</svg>
