<svg width="24" height="24" viewBox="0 0 24 24" fill="none" xmlns="http://www.w3.org/2000/svg">
<g clip-path="url(#clip0)">
<path d="M12.0057 5.83984C8.60266 5.83984 5.84766 8.59784 5.84766 11.9978C5.84766 15.4008 8.60566 18.1558 12.0057 18.1558C15.4087 18.1558 18.1637 15.3978 18.1637 11.9978C18.1637 8.59484 15.4057 5.83984 12.0057 5.83984ZM12.0057 15.9948C9.79665 15.9948 8.00866 14.2058 8.00866 11.9978C8.00866 9.78984 9.79766 8.00084 12.0057 8.00084C14.2137 8.00084 16.0027 9.78984 16.0027 11.9978C16.0037 14.2058 14.2147 15.9948 12.0057 15.9948Z" fill="#70788A"/>
<path d="M16.9482 0.0753867C14.7402 -0.0276133 9.27123 -0.0226133 7.06123 0.0753867C5.11923 0.166387 3.40623 0.635386 2.02523 2.01639C-0.282773 4.32439 0.0122273 7.43439 0.0122273 11.9954C0.0122273 16.6634 -0.247773 19.7014 2.02523 21.9744C4.34223 24.2904 7.49723 23.9874 12.0042 23.9874C16.6282 23.9874 18.2242 23.9904 19.8592 23.3574C22.0822 22.4944 23.7602 20.5074 23.9242 16.9384C24.0282 14.7294 24.0222 9.26139 23.9242 7.05139C23.7262 2.83839 21.4652 0.283387 16.9482 0.0753867ZM20.4432 20.4474C18.9302 21.9604 16.8312 21.8254 11.9752 21.8254C6.97523 21.8254 4.97023 21.8994 3.50723 20.4324C1.82223 18.7554 2.12723 16.0624 2.12723 11.9794C2.12723 6.45439 1.56023 2.47539 7.10523 2.19139C8.37923 2.14639 8.75423 2.13139 11.9612 2.13139L12.0062 2.16139C17.3352 2.16139 21.5162 1.60339 21.7672 7.14739C21.8242 8.41239 21.8372 8.79239 21.8372 11.9944C21.8362 16.9364 21.9302 18.9534 20.4432 20.4474Z" fill="#70788A"/>
<path d="M18.4078 7.03619C19.2025 7.03619 19.8468 6.39193 19.8468 5.5972C19.8468 4.80246 19.2025 4.1582 18.4078 4.1582C17.613 4.1582 16.9688 4.80246 16.9688 5.5972C16.9688 6.39193 17.613 7.03619 18.4078 7.03619Z" fill="#70788A"/>
</g>
<defs>
<clipPath id="clip0">
<rect width="24" height="24" fill="white"/>
</clipPath>
</defs>
</svg>
