<svg width="8" height="11" viewBox="0 0 8 11" fill="none" xmlns="http://www.w3.org/2000/svg">
<path d="M0.192101 5.07078L5.55142 0.17573C5.67537 0.0624221 5.84084 -1.07911e-07 6.01727 -9.24864e-08C6.19371 -7.7062e-08 6.35918 0.0624222 6.48313 0.17573L6.87781 0.536134C7.13463 0.770977 7.13463 1.15267 6.87781 1.38715L2.37746 5.49772L6.8828 9.61285C7.00676 9.72616 7.07519 9.8772 7.07519 10.0383C7.07519 10.1995 7.00676 10.3506 6.8828 10.464L6.48812 10.8243C6.36407 10.9376 6.1987 11 6.02227 11C5.84583 11 5.68036 10.9376 5.55641 10.8243L0.192101 5.92475C0.0678534 5.81108 -0.000390116 5.65932 1.85993e-06 5.49799C-0.000390085 5.33603 0.0678534 5.18436 0.192101 5.07078Z" fill="#70788A"/>
</svg>
