<svg width="24" height="24" viewBox="0 0 24 24" fill="none" xmlns="http://www.w3.org/2000/svg">
<g clip-path="url(#clip0)">
<path d="M23.9972 23.9983V23.9973H24.0032V15.1953C24.0032 10.8893 23.0762 7.57227 18.0422 7.57227C15.6222 7.57227 13.9982 8.90027 13.3352 10.1593H13.2652V7.97427H8.49219L8.49219 23.9973H13.4622V16.0633C13.4622 13.9743 13.8582 11.9543 16.4452 11.9543C18.9942 11.9543 19.0322 14.3383 19.0322 16.1973V23.9983H23.9972Z" fill="#70788A"/>
<path d="M0.394531 7.97656H5.37053L5.37053 23.9996H0.394531L0.394531 7.97656Z" fill="#70788A"/>
<path d="M2.882 0C1.291 0 0 1.291 0 2.882C0 4.473 1.291 5.791 2.882 5.791C4.473 5.791 5.764 4.473 5.764 2.882C5.763 1.291 4.472 0 2.882 0V0Z" fill="#70788A"/>
</g>
<defs>
<clipPath id="clip0">
<rect width="24" height="24" fill="white"/>
</clipPath>
</defs>
</svg>
