<svg width="8" height="11" viewBox="0 0 8 11" fill="none" xmlns="http://www.w3.org/2000/svg">
<path d="M6.887 5.07078L1.52768 0.17573C1.40373 0.0624221 1.23826 -1.07911e-07 1.06183 -9.24864e-08C0.885393 -7.7062e-08 0.719924 0.0624222 0.59597 0.17573L0.201294 0.536134C-0.0555251 0.770977 -0.0555251 1.15267 0.201294 1.38715L4.70164 5.49772L0.196301 9.61285C0.0723465 9.72616 0.00390719 9.8772 0.00390721 10.0383C0.00390722 10.1995 0.0723465 10.3506 0.196301 10.464L0.590977 10.8243C0.71503 10.9376 0.8804 11 1.05683 11C1.23327 11 1.39874 10.9376 1.52269 10.8243L6.887 5.92475C7.01125 5.81108 7.07949 5.65932 7.0791 5.49799C7.07949 5.33603 7.01125 5.18436 6.887 5.07078Z" fill="#70788A"/>
</svg>
