<svg width="16" height="16" viewBox="0 0 16 16" fill="none" xmlns="http://www.w3.org/2000/svg">
<rect width="16" height="16" rx="8" fill="#B6B6B6"/>
<path d="M11.1685 4.83247H10.1125V4.48047H5.88847V4.83247H4.83247C4.62127 4.83247 4.48047 4.97327 4.48047 5.18447V6.02927C4.48047 6.83887 5.07887 7.50767 5.88847 7.61327V7.64847C5.88847 8.66927 6.59247 9.51407 7.54287 9.72527L7.29647 10.4645H6.48687C6.34607 10.4645 6.20527 10.5701 6.17007 10.7109L5.88847 11.5205H10.1125L9.83087 10.7109C9.79567 10.5701 9.65487 10.4645 9.51407 10.4645H8.70447L8.45807 9.72527C9.40847 9.51407 10.1125 8.66927 10.1125 7.64847V7.61327C10.9221 7.50767 11.5205 6.83887 11.5205 6.02927V5.18447C11.5205 4.97327 11.3797 4.83247 11.1685 4.83247ZM5.88847 6.90927C5.50127 6.80367 5.18447 6.45167 5.18447 6.02927V5.53647H5.88847V6.90927ZM10.8165 6.02927C10.8165 6.45167 10.4997 6.83887 10.1125 6.90927V5.53647H10.8165V6.02927Z" fill="white"/>
</svg>
